<svg width="20" height="20" viewBox="0 0 20 20" fill="none" xmlns="http://www.w3.org/2000/svg">
<path d="M10.0003 2.29199C4.21949 2.29199 2.29199 4.21949 2.29199 10.0003C2.29199 15.7812 4.21949 17.7087 10.0003 17.7087C15.7812 17.7087 17.7087 15.7812 17.7087 10.0003" stroke="#141414" stroke-width="1.5" stroke-linecap="round" stroke-linejoin="round"/>
<path fill-rule="evenodd" clip-rule="evenodd" d="M16.2739 3.58685V3.58685C15.4464 2.85435 14.1822 2.93102 13.4497 3.75852C13.4497 3.75852 9.80885 7.87102 8.54635 9.29852C7.28219 10.7252 8.20885 12.696 8.20885 12.696C8.20885 12.696 10.2955 13.3569 11.5405 11.9502C12.7864 10.5435 16.4455 6.41102 16.4455 6.41102C17.178 5.58352 17.1005 4.31935 16.2739 3.58685Z" stroke="#141414" stroke-width="1.5" stroke-linecap="round" stroke-linejoin="round"/>
<path d="M12.5078 4.83398L15.5036 7.48648" stroke="#141414" stroke-width="1.5" stroke-linecap="round" stroke-linejoin="round"/>
</svg>
